<svg version="1.1" id="Layer_1" xmlns="http://www.w3.org/2000/svg" xmlns:xlink="http://www.w3.org/1999/xlink" x="0px" y="0px"
	 width="100%" viewBox="0 0 864 864" enable-background="new 0 0 864 864" xml:space="preserve">
<path fill="none" opacity="1.000000" stroke="none" 
	d="
M1.000000,793.000000 
	C1.000000,529.069336 1.000000,265.138672 1.000000,1.000000 
	C264.694672,1.000000 528.389404,1.000000 792.541992,1.451422 
	C792.667053,4.979923 792.177734,8.049335 792.026489,11.135316 
	C790.978210,32.520714 790.149658,53.918137 788.921387,75.292786 
	C788.474243,83.072670 786.808655,90.778969 786.274902,98.558357 
	C785.630127,107.955490 785.031311,117.361061 790.415466,126.045975 
	C798.133301,138.495178 809.058411,144.528366 823.642456,143.993912 
	C835.389893,143.563431 844.542480,138.570129 851.615601,129.037521 
	C858.191711,120.174789 858.659485,109.762886 859.865967,99.633377 
	C861.414368,86.633446 861.966125,73.515968 863.078369,60.460289 
	C863.152283,59.591923 864.333679,58.817898 865.000000,57.999996 
	C865.000000,326.930664 865.000000,595.861328 865.000000,865.000000 
	C596.305359,865.000000 327.610626,865.000000 58.154945,864.618530 
	C58.907722,863.824707 60.404064,863.160706 61.938969,863.054626 
	C64.758919,862.859680 67.625252,863.229858 70.430687,862.949097 
	C82.775673,861.713623 95.158112,860.680664 107.419571,858.853516 
	C113.664993,857.922913 120.200546,856.439514 125.701180,853.509399 
	C138.802307,846.530579 144.174332,834.888916 144.112610,820.064270 
	C144.039764,802.572815 127.523888,785.270569 109.770042,786.093140 
	C99.161873,786.584656 88.604355,788.093811 78.009827,788.974060 
	C64.762657,790.074768 51.513180,791.233643 38.241783,791.931885 
	C25.843435,792.584045 13.415123,792.666687 1.000000,793.000000 
M350.384186,710.964844 
	C335.779633,717.592529 321.313324,724.549133 306.533783,730.760498 
	C289.867889,737.764771 280.733124,749.192261 280.891541,767.908325 
	C281.085907,790.871277 304.739471,808.069519 326.581268,800.851196 
	C340.070862,796.393066 353.140045,790.459656 366.000000,784.350830 
	C382.126282,776.690430 398.045685,768.536499 413.685150,759.925049 
	C430.569763,750.628052 447.454224,741.207764 463.565674,730.660400 
	C484.226654,717.134583 504.175659,702.514160 524.317139,688.204468 
	C537.238892,679.024048 542.637878,666.835388 540.151550,650.688721 
	C536.319824,625.803711 505.333221,612.349670 484.050537,627.473938 
	C480.876923,629.729248 478.009949,632.422058 474.802032,634.622192 
	C458.180176,646.022339 441.590942,657.474609 424.806183,668.631653 
	C401.199860,684.323059 376.377991,697.911255 350.384186,710.964844 
M686.559082,526.961975 
	C693.695496,517.152893 700.911133,507.400360 707.953308,497.524109 
	C728.724915,468.392700 747.698181,438.097229 764.046631,406.297211 
	C776.597046,381.884857 788.057678,356.895508 799.431519,331.902710 
	C804.455383,320.863281 804.009094,309.047302 797.689636,298.627075 
	C790.484131,286.745728 779.590637,280.514069 765.115417,280.905457 
	C753.006531,281.232910 742.825623,285.539154 736.864929,295.918488 
	C730.097229,307.703064 725.022034,320.450653 719.017456,332.684540 
	C710.591370,349.851776 702.460693,367.189636 693.316040,383.970795 
	C685.244141,398.783417 676.386536,413.217224 667.095947,427.303925 
	C655.371277,445.081360 643.186890,462.581207 630.553955,479.724091 
	C623.225830,489.668335 619.469360,499.940613 621.984314,512.233887 
	C625.534424,529.586975 640.749207,540.773254 656.973450,540.984619 
	C668.797974,541.138733 678.329468,536.228760 686.559082,526.961975 
z"/>
<path fill="#FFFFFF" opacity="1.000000" stroke="none" 
	d="
M1.000000,793.468689 
	C13.415123,792.666687 25.843435,792.584045 38.241783,791.931885 
	C51.513180,791.233643 64.762657,790.074768 78.009827,788.974060 
	C88.604355,788.093811 99.161873,786.584656 109.770042,786.093140 
	C127.523888,785.270569 144.039764,802.572815 144.112610,820.064270 
	C144.174332,834.888916 138.802307,846.530579 125.701180,853.509399 
	C120.200546,856.439514 113.664993,857.922913 107.419571,858.853516 
	C95.158112,860.680664 82.775673,861.713623 70.430687,862.949097 
	C67.625252,863.229858 64.758919,862.859680 61.938969,863.054626 
	C60.404064,863.160706 58.907722,863.824707 57.696991,864.618530 
	C39.064663,865.000000 20.129324,865.000000 1.000000,865.000000 
	C1.000000,841.312805 1.000000,817.625061 1.000000,793.468689 
z"/>
<path fill="#FFFFFF" opacity="1.000000" stroke="none" 
	d="
M865.000000,57.531338 
	C864.333679,58.817898 863.152283,59.591923 863.078369,60.460289 
	C861.966125,73.515968 861.414368,86.633446 859.865967,99.633377 
	C858.659485,109.762886 858.191711,120.174789 851.615601,129.037521 
	C844.542480,138.570129 835.389893,143.563431 823.642456,143.993912 
	C809.058411,144.528366 798.133301,138.495178 790.415466,126.045975 
	C785.031311,117.361061 785.630127,107.955490 786.274902,98.558357 
	C786.808655,90.778969 788.474243,83.072670 788.921387,75.292786 
	C790.149658,53.918137 790.978210,32.520714 792.026489,11.135316 
	C792.177734,8.049335 792.667053,4.979923 793.000000,1.451422 
	C816.918335,1.000000 840.836609,1.000000 865.000000,1.000000 
	C865.000000,19.686848 865.000000,38.374763 865.000000,57.531338 
z"/>
<path fill="#FFFFFF" opacity="1.000000" stroke="none" 
	d="
M350.692078,710.732422 
	C376.377991,697.911255 401.199860,684.323059 424.806183,668.631653 
	C441.590942,657.474609 458.180176,646.022339 474.802032,634.622192 
	C478.009949,632.422058 480.876923,629.729248 484.050537,627.473938 
	C505.333221,612.349670 536.319824,625.803711 540.151550,650.688721 
	C542.637878,666.835388 537.238892,679.024048 524.317139,688.204468 
	C504.175659,702.514160 484.226654,717.134583 463.565674,730.660400 
	C447.454224,741.207764 430.569763,750.628052 413.685150,759.925049 
	C398.045685,768.536499 382.126282,776.690430 366.000000,784.350830 
	C353.140045,790.459656 340.070862,796.393066 326.581268,800.851196 
	C304.739471,808.069519 281.085907,790.871277 280.891541,767.908325 
	C280.733124,749.192261 289.867889,737.764771 306.533783,730.760498 
	C321.313324,724.549133 335.779633,717.592529 350.692078,710.732422 
z"/>
<path fill="#FFFFFF" opacity="1.000000" stroke="none" 
	d="
M686.293945,527.207947 
	C678.329468,536.228760 668.797974,541.138733 656.973450,540.984619 
	C640.749207,540.773254 625.534424,529.586975 621.984314,512.233887 
	C619.469360,499.940613 623.225830,489.668335 630.553955,479.724091 
	C643.186890,462.581207 655.371277,445.081360 667.095947,427.303925 
	C676.386536,413.217224 685.244141,398.783417 693.316040,383.970795 
	C702.460693,367.189636 710.591370,349.851776 719.017456,332.684540 
	C725.022034,320.450653 730.097229,307.703064 736.864929,295.918488 
	C742.825623,285.539154 753.006531,281.232910 765.115417,280.905457 
	C779.590637,280.514069 790.484131,286.745728 797.689636,298.627075 
	C804.009094,309.047302 804.455383,320.863281 799.431519,331.902710 
	C788.057678,356.895508 776.597046,381.884857 764.046631,406.297211 
	C747.698181,438.097229 728.724915,468.392700 707.953308,497.524109 
	C700.911133,507.400360 693.695496,517.152893 686.293945,527.207947 
z"/>
</svg>